#!OML:ASF H:\Terrain\Patient Classification 1\Walking\steve\steve.ASF
:FULLY-SPECIFIED
:DEGREES
307
root 8.3465 16.7229 27.5684 3.73434 -5.62651 2.14767
lowerback -0.279225 2.48557 -3.18813
upperback -2.16975 3.27722 -0.50082
thorax -2.22135 1.69171 1.20937
lowerneck -10.3162 -0.486248 -2.98737
upperneck 15.9109 -0.495413 2.03846
head 6.55285 -0.248041 1.10308
rclavicle 3.67266e-015 1.49089e-016
rhumerus -42.4975 -7.61716 -85.3522
rradius 32.4808
rwrist -17.8626
rhand -20.6472 -39.7623
rfingers 7.12502
rthumb 5.71495 -69.6653
lclavicle 3.67266e-015 1.49089e-016
lhumerus -33.4095 5.87344 85.1193
lradius 22.636
lwrist 2.77081
lhand -19.2102 -10.9372
lfingers 7.12502
lthumb 7.10226 18.9236
rfemur -32.8581 1.36004 19.1515
rtibia 67.9837
rfoot -10.2971 1.83657
rtoes -14.7615
lfemur -12.5391 1.17183 -27.6816
ltibia 28.8099
lfoot -17.0395 -5.3292
ltoes 4.74434
308
root 8.35247 16.7008 27.78 3.59788 -5.06973 2.59679
lowerback -0.114422 2.38492 -3.71792
upperback -2.23721 3.12837 -0.523434
thorax -2.40557 1.6306 1.47429
lowerneck -10.2196 -0.420623 -2.89352
upperneck 16.2236 -0.421195 2.00482
head 6.63364 -0.210627 1.08467
rclavicle -4.03451e-014 -1.12313e-014
rhumerus -43.8096 -8.80965 -84.3577
rradius 30.8031
rwrist -16.7547
rhand -19.9322 -40.2409
rfingers 7.12502
rthumb 6.4053 -70.124
lclavicle -4.03451e-014 -1.12313e-014
lhumerus -32.6794 3.93317 86.3511
lradius 24.4576
lwrist 5.1103
lhand -20.2087 -11.3186
lfingers 7.12502
lthumb 6.13836 18.5725
rfemur -33.5757 0.987733 18.918
rtibia 66.2011
rfoot -12.154 1.77267
rtoes -17.2652
lfemur -11.5305 1.56681 -28.2644
ltibia 28.8065
lfoot -17.5324 -6.10185
ltoes 4.95824
309
root 8.36443 16.6839 27.9864 3.63805 -4.27922 3.33101
lowerback -0.356573 2.11284 -4.51017
upperback -2.0933 2.77144 -0.629035
thorax -2.13667 1.45959 1.82992
lowerneck -10.4089 -0.696499 -3.42605
upperneck 16.1615 -0.796614 2.55906
head 6.66052 -0.3767 1.31781
rclavicle -9.54011e-015 5.46658e-016
rhumerus -44.5106 -9.95588 -83.4129
rradius 29.1274
rwrist -15.0369
rhand -19.8284 -39.8364
rfingers 7.12502
rthumb 6.50549 -69.7165
lclavicle -9.54011e-015 5.46658e-016
lhumerus -31.5188 2.13329 87.3853
lradius 26.1563
lwrist 7.56609
lhand -20.9964 -11.7971
lfingers 7.12502
lthumb 5.37786 18.1147
rfemur -34.4736 0.140495 18.3085
rtibia 64.2337
rfoot -12.6683 2.11504
rtoes -12.8291
lfemur -10.5134 1.85045 -29.1401
ltibia 28.3513
lfoot -17.508 -7.03623
ltoes 5.60627
310
root 8.33616 16.6786 28.192 4.084 -4.66978 2.55427
lowerback -1.71738 2.29785 -4.28675
upperback -1.3923 3.11287 -0.337707
thorax -0.677978 1.59075 2.07943
lowerneck -11.3083 -1.12929 -4.0761
upperneck 15.5121 -1.40221 3.55591
head 6.63965 -0.616046 1.6876
rclavicle -3.57323e-014 4.96962e-017
rhumerus -43.9608 -11.8047 -82.4985
rradius 26.9634
rwrist -12.7616
rhand -22.2268 -35.9251
rfingers 7.12502
rthumb 4.18977 -65.8636
lclavicle -3.57323e-014 4.96962e-017
lhumerus -29.1342 0.133077 88.1808
lradius 27.7057
lwrist 9.7619
lhand -21.3495 -12.4369
lfingers 7.12502
lthumb 5.03692 17.4832
rfemur -35.8602 1.34968 19.5639
rtibia 61.7799
rfoot -13.6625 1.16808
rtoes -14.6816
lfemur -10.055 2.34523 -28.2435
ltibia 27.9045
lfoot -17.399 -7.09826
ltoes 5.09824
311
root 8.36622 16.686 28.3979 3.7516 -3.64424 2.60687
lowerback -0.0892053 2.0887 -3.98357
upperback -2.07291 2.73622 -0.364747
thorax -2.25009 1.4371 1.79852
lowerneck -10.1884 -0.77807 -3.4683
upperneck 15.6199 -0.937032 2.77366
head 6.45442 -0.429172 1.37881
rclavicle 3.23343e-014 -1.49089e-016
rhumerus -46.28 -13.3536 -80.8672
rradius 25.2654
rwrist -10.3899
rhand -18.7651 -40.1557
rfingers 7.12502
rthumb 7.53187 -70.0016
lclavicle 3.23343e-014 -1.49089e-016
lhumerus -29.3963 -1.60296 88.8445
lradius 29.6538
lwrist 11.743
lhand -21.9485 -12.6561
lfingers 7.12502
lthumb 4.45853 17.2769
rfemur -35.8976 0.198926 19.6795
rtibia 59.1299
rfoot -14.8241 0.71758
rtoes -18.3168
lfemur -8.34625 2.38562 -28.3634
ltibia 27.1285
lfoot -16.9884 -7.98445
ltoes 6.7375
312
root 8.33516 16.6896 28.6235 3.93087 -3.8606 2.37236
lowerback 0.380628 2.17863 -4.46373
upperback -2.69884 2.81478 -0.155465
thorax -3.20344 1.51639 2.24289
lowerneck -10.2693 -0.87624 -3.47567
upperneck 16.591 -1.11878 2.9777
head 6.78593 -0.501412 1.43494
rclavicle -8.79467e-015 8.15017e-015
rhumerus -48.5504 -15.0368 -78.9965
rradius 23.6885
rwrist -7.61638
rhand -17.7065 -40.9124
rfingers 7.12502
rthumb 8.55355 -70.7191
lclavicle -8.79467e-015 8.15017e-015
lhumerus -29.4517 -3.07753 89.3037
lradius 31.5087
lwrist 13.7705
lhand -22.3395 -12.4938
lfingers 7.12502
lthumb 4.08095 17.4469
rfemur -36.6007 1.18541 20.2318
rtibia 56.185
rfoot -15.5493 -0.57232
rtoes -17.9423
lfemur -7.36062 2.7125 -27.9953
ltibia 26.4053
lfoot -16.9876 -7.99893
ltoes 7.73916
313
root 8.34836 16.6932 28.8387 3.74098 -2.91374 3.0793
lowerback -2.68343 1.88582 -4.66725
upperback -0.0963736 2.66333 -0.532342
thorax 1.2179 1.305 2.15977
lowerneck -12.7459 -1.24671 -3.61667
upperneck 15.3645 -1.58725 3.49984
head 6.84622 -0.669748 1.57279
rclavicle -3.11284e-014 -4.82053e-015
rhumerus -45.7891 -18.6882 -77.8153
rradius 21.5649
rwrist -3.73949
rhand -18.0234 -38.7428
rfingers 7.12502
rthumb 8.24772 -68.5618
lclavicle -3.11284e-014 -4.82053e-015
lhumerus -24.1498 -5.0744 89.2971
lradius 32.5686
lwrist 15.8491
lhand -22.7608 -12.6895
lfingers 7.12502
lthumb 3.67408 17.2586
rfemur -36.6306 0.274993 19.5269
rtibia 53.2396
rfoot -16.392 -0.211566
rtoes -15.8629
lfemur -5.62079 2.67884 -28.7133
ltibia 25.2086
lfoot -16.7676 -8.57508
ltoes 7.45918
314
root 8.35851 16.6911 29.051 3.66398 -2.22114 3.44297
lowerback -0.19695 1.62269 -5.62084
upperback -1.78659 2.11576 -0.201409
thorax -1.92782 1.14528 2.9052
lowerneck -10.7273 -0.830521 -3.64649
upperneck 15.7207 -1.00772 3.04522
head 6.58475 -0.447777 1.48943
rclavicle -2.56363e-014 6.95746e-015
rhumerus -50.1585 -18.9993 -74.8134
rradius 20.7886
rwrist -0.795401
rhand -17.9667 -37.7094
rfingers 7.12502
rthumb 8.30243 -67.5262
lclavicle -2.56363e-014 6.95746e-015
lhumerus -26.1335 -5.66854 90.0581
lradius 34.4749
lwrist 17.178
lhand -23.4755 -13.5142
lfingers 7.12502
lthumb 2.98394 16.4447
rfemur -36.8369 -0.255063 19.1754
rtibia 50.1658
rfoot -16.7859 -0.198979
rtoes -13.916
lfemur -4.06329 2.63668 -29.054
ltibia 24.1218
lfoot -16.7872 -9.00779
ltoes 7.20463
315
root 8.36723 16.6864 29.2648 3.6856 -1.48041 3.54298
lowerback -3.25911 1.50119 -5.14033
upperback 0.669984 2.22834 -0.532008
thorax 2.34498 1.04274 2.44499
lowerneck -12.8356 -1.12179 -3.37201
upperneck 14.2429 -1.39973 3.27602
head 6.49179 -0.584462 1.47254
rclavicle -6.10642e-015 2.98177e-016
rhumerus -48.0459 -23.6579 -73.0735
rradius 18.8708
rwrist 4.00707
rhand -17.3275 -38.9519
rfingers 7.12502
rthumb 8.91934 -68.7434
lclavicle -6.10642e-015 2.98177e-016
lhumerus -21.0105 -7.51524 89.6267
lradius 35.4399
lwrist 18.423
lhand -23.9743 -13.9728
lfingers 7.12502
lthumb 2.50222 15.9922
rfemur -37.1312 -0.893273 19.1489
rtibia 46.963
rfoot -17.0674 -0.274557
rtoes -11.6622
lfemur -2.60906 2.55812 -29.0697
ltibia 22.992
lfoot -16.4371 -9.66479
ltoes 7.87054
316
root 8.36211 16.6752 29.474 3.81338 -0.82816 3.46456
lowerback -1.76589 1.36719 -5.49837
upperback -0.526224 1.91946 -0.263204
thorax 0.27716 0.962333 2.84464
lowerneck -11.4653 -0.968155 -3.3488
upperneck 14.5008 -1.23176 3.21914
head 6.33109 -0.517918 1.4691
rclavicle 8.56016e-015 1.0635e-014
rhumerus -51.7252 -24.814 -69.5467
rradius 17.6155
rwrist 7.49817
rhand -16.5209 -40.3152
rfingers 7.12502
rthumb 9.69757 -70.072
lclavicle 8.56016e-015 1.0635e-014
lhumerus -21.9291 -8.31506 90.1142
lradius 36.9605
lwrist 19.2684
lhand -24.3896 -14.1056
lfingers 7.12502
lthumb 2.10108 15.8638
rfemur -37.4062 -1.07728 19.3007
rtibia 43.6037
rfoot -17.3905 0.329129
rtoes -7.71729
lfemur -1.42047 2.61342 -28.804
ltibia 21.9744
lfoot -15.7707 -10.6004
ltoes 10.3735
317
root 8.35385 16.6627 29.6797 4.08453 -0.30376 3.09157
lowerback -2.68186 1.33738 -5.18266
upperback -0.0100102 1.94613 -0.169903
thorax 1.32746 0.938856 2.80029
lowerneck -11.7989 -1.27378 -3.62388
upperneck 14.0379 -1.65036 3.67215
head 6.26204 -0.696179 1.61931
rclavicle 3.84027e-014 -8.05078e-015
rhumerus -53.0447 -27.6473 -66.5714
rradius 16.288
rwrist 11.8094
rhand -16.0508 -40.3628
rfingers 7.12502
rthumb 10.1512 -70.0979
lclavicle 3.84027e-014 -8.05078e-015
lhumerus -19.8405 -9.61083 89.9769
lradius 38.2347
lwrist 20.3152
lhand -24.5919 -14.3164
lfingers 7.12502
lthumb 1.90566 15.6549
rfemur -37.7054 -0.757934 19.6805
rtibia 40.1598
rfoot -17.5472 0.618457
rtoes -4.90798
lfemur -0.34334 2.67401 -28.1977
ltibia 20.7803
lfoot -15.1266 -11.4071
ltoes 12.2072
318
root 8.35511 16.6572 29.9 4.30075 0.339502 3.05863
lowerback -2.50362 1.15114 -5.19034
upperback -0.298066 1.67852 -0.194539
thorax 0.954312 0.820324 2.76181
lowerneck -11.5681 -1.40126 -3.56712
upperneck 14.0655 -1.85328 3.74068
head 6.239 -0.788119 1.61464
rclavicle -9.88954e-015 -1.18277e-014
rhumerus -55.835 -29.2614 -63.4305
rradius 15.6573
rwrist 15.523
rhand -15.7313 -39.8432
rfingers 7.12502
rthumb 10.4594 -69.563
lclavicle -9.88954e-015 -1.18277e-014
lhumerus -19.216 -10.6448 89.7354
lradius 39.6292
lwrist 21.3012
lhand -24.6966 -14.744
lfingers 7.12502
lthumb 1.80461 15.2281
rfemur -37.9666 -0.915334 19.7159
rtibia 36.7994
rfoot -17.7429 0.143231
rtoes -7.92614
lfemur 1.04047 2.71288 -27.9529
ltibia 19.2932
lfoot -14.388 -12.2828
ltoes 12.4791
